<?xml version="1.0" encoding="utf-8"?>
<!-- Generator: Adobe Illustrator 25.3.1, SVG Export Plug-In . SVG Version: 6.00 Build 0)  -->
<svg version="1.1" id="Layer_1" xmlns="http://www.w3.org/2000/svg" xmlns:xlink="http://www.w3.org/1999/xlink" x="0px" y="0px"
	 width="45.3px" height="45px" viewBox="0 0 45.3 45" style="enable-background:new 0 0 45.3 45;" xml:space="preserve">
<style type="text/css">
	.st0{fill:#FFFFFF;}
</style>
<path class="st0" d="M27.5,2.7c0,0.7,0,1.3,0,2c0,0.3,0.1,0.4,0.3,0.5c0.5,0.1,1,0.3,1.5,0.5c0.2,0.1,0.5,0.1,0.6-0.1
	c0.9-1,1.8-2,2.7-3c0.2-0.2,0.3-0.3,0.6-0.1s0.8,0.5,1.2,0.7s0.3,0.3,0.2,0.6c-0.5,1.2-0.9,2.5-1.4,3.7c-0.1,0.2-0.1,0.4,0.1,0.5
	c0,0,0,0,0,0c0.4,0.3,0.8,0.6,1.2,1c0.2,0.2,0.4,0.2,0.6,0.1c0,0,0,0,0,0c1.1-0.7,2.3-1.4,3.4-2C38.9,7,39,7,39.2,7.2
	c0.3,0.4,0.7,0.8,1,1.2c0.2,0.1,0.2,0.4,0.1,0.5c0,0,0,0-0.1,0.1c-0.8,1-1.7,2.1-2.5,3.1c-0.2,0.2-0.2,0.5,0,0.7c0,0,0,0,0,0
	c0.3,0.4,0.5,0.8,0.8,1.3c0.1,0.2,0.3,0.4,0.5,0.3c1.4-0.2,2.7-0.3,4.1-0.5c0.2,0,0.3,0,0.4,0.2c0.2,0.5,0.3,0.9,0.5,1.4
	c0.1,0.2,0,0.3-0.2,0.4c-1.2,0.7-2.3,1.4-3.5,2.1c-0.2,0.1-0.4,0.4-0.3,0.6c0,0,0,0,0,0c0.1,0.5,0.2,1,0.3,1.5
	c0,0.4,0.2,0.5,0.5,0.5c1.2,0.2,2.5,0.4,3.7,0.6c0.4,0.1,0.6,0.2,0.5,0.6c0,0.5,0,1.1,0,1.6c0,0.3-0.1,0.4-0.3,0.4
	c-1.3,0.2-2.5,0.4-3.8,0.6c-0.4,0.1-0.6,0.2-0.7,0.6c0,0.5-0.1,1-0.2,1.5c-0.1,0.2,0,0.4,0.2,0.5c1.2,0.7,2.3,1.4,3.5,2.1
	c0.2,0.1,0.3,0.3,0.2,0.5c-0.2,0.4-0.3,0.8-0.5,1.3c0,0.2-0.2,0.4-0.4,0.3c0,0-0.1,0-0.1,0c-1.4-0.2-2.7-0.3-4.1-0.5
	c-0.2-0.1-0.4,0-0.5,0.2c-0.2,0.5-0.5,1-0.8,1.4c-0.2,0.1-0.2,0.4,0,0.6c0,0,0,0,0,0c0.8,1,1.7,2.1,2.5,3.2c0.2,0.2,0.2,0.3,0,0.5
	c-0.4,0.4-0.7,0.8-1,1.2c-0.2,0.2-0.3,0.2-0.5,0.1l-3.4-2.1c-0.1-0.2-0.4-0.2-0.5,0c0,0,0,0,0,0c-0.4,0.4-0.8,0.7-1.3,1.1
	c-0.2,0.1-0.2,0.3-0.2,0.5c0,0,0,0,0,0c0.5,1.3,0.9,2.5,1.4,3.8c0.1,0.2,0.1,0.4-0.2,0.5c-0.4,0.2-0.8,0.5-1.2,0.7
	c-0.2,0.2-0.4,0.2-0.6,0c0,0,0-0.1-0.1-0.1c-0.9-1-1.8-2-2.7-3c-0.1-0.2-0.4-0.3-0.6-0.1c-0.5,0.2-1,0.4-1.5,0.5
	c-0.2,0-0.4,0.2-0.4,0.5c0,0,0,0,0,0c0,1.3,0,2.7,0,4c0,0.3-0.1,0.4-0.4,0.5c-0.5,0.1-1,0.2-1.4,0.2c-0.2,0.1-0.3,0-0.4-0.2
	c-0.5-1.2-1-2.5-1.5-3.8c-0.1-0.3-0.2-0.4-0.5-0.4c-0.4,0-0.8,0-1.2,0c-0.2,0-0.4,0.1-0.5,0.3c-0.5,1.3-1,2.5-1.5,3.8
	c-0.1,0.3-0.2,0.4-0.5,0.3c-0.5-0.1-0.9-0.2-1.4-0.2c-0.3,0-0.4-0.2-0.4-0.5c0-1.3,0-2.7,0-4c0-0.2-0.1-0.4-0.3-0.5c0,0,0,0,0,0
	c-0.5-0.1-1-0.3-1.5-0.5c-0.2-0.1-0.5-0.1-0.6,0.1c-0.9,1-1.8,2-2.7,3c-0.1,0.2-0.4,0.3-0.6,0.1c0,0,0,0-0.1,0
	c-0.4-0.2-0.8-0.5-1.2-0.7s-0.4-0.3-0.2-0.6c0.5-1.2,0.9-2.5,1.4-3.7c0.1-0.2,0-0.4-0.1-0.5c0,0,0,0,0,0c-0.5-0.3-0.9-0.7-1.3-1.1
	c-0.1-0.2-0.4-0.2-0.5,0L6.5,38c-0.1,0.1-0.4,0.1-0.5,0c0,0,0,0,0-0.1c-0.3-0.4-0.7-0.8-1-1.2c-0.2-0.1-0.2-0.4-0.1-0.6
	c0,0,0-0.1,0.1-0.1C5.8,35,6.6,34,7.5,33c0.2-0.2,0.2-0.4,0-0.6c0,0,0,0,0,0C7.2,32,6.9,31.5,6.7,31c-0.1-0.2-0.3-0.3-0.5-0.2
	L2,31.3c-0.2,0-0.3,0-0.4-0.2c-0.2-0.5-0.3-0.9-0.5-1.4c-0.1-0.2,0-0.3,0.2-0.4L4.8,27c0.2-0.1,0.3-0.3,0.2-0.5c0,0,0,0,0,0
	c-0.1-0.5-0.2-1.1-0.3-1.6c0-0.2-0.2-0.4-0.4-0.4c0,0,0,0,0,0c-1.3-0.2-2.7-0.5-4-0.7c-0.3,0-0.4-0.1-0.4-0.4c0-0.6,0-1.2,0-1.8
	c0-0.3,0.1-0.4,0.4-0.4c1.3-0.2,2.6-0.5,3.9-0.6c0.3-0.1,0.5-0.1,0.6-0.6c0-0.5,0.1-1,0.3-1.5c0-0.2-0.1-0.4-0.2-0.4
	c-1.2-0.7-2.3-1.4-3.5-2.1c-0.2-0.1-0.3-0.3-0.2-0.5c0,0,0,0,0-0.1c0.2-0.4,0.3-0.8,0.5-1.3c0-0.2,0.2-0.3,0.4-0.3c0,0,0,0,0.1,0
	c1.4,0.2,2.8,0.3,4.1,0.5c0.2,0.1,0.5-0.1,0.5-0.3c0,0,0,0,0,0c0.3-0.5,0.5-0.9,0.8-1.4c0.1-0.1,0.1-0.4,0-0.5
	C6.7,11,5.8,9.9,4.9,8.9c-0.2-0.2-0.2-0.3,0-0.5C5.3,8,5.7,7.5,6,7.1C6.2,6.9,6.3,6.9,6.5,7c1.1,0.7,2.3,1.3,3.4,2
	c0.2,0.2,0.5,0.1,0.6-0.1c0,0,0,0,0,0c0.4-0.4,0.8-0.7,1.2-1C12,7.9,12.1,7.7,12,7.5c0,0,0,0,0,0c-0.5-1.2-0.9-2.5-1.4-3.8
	c-0.1-0.2-0.1-0.4,0.2-0.5c0.5-0.2,0.9-0.5,1.3-0.8c0.1-0.1,0.4-0.1,0.5,0c0,0,0,0,0,0c0.9,1,1.9,2,2.8,3c0.1,0.2,0.4,0.3,0.6,0.2
	c0.5-0.2,1-0.4,1.5-0.5c0.3-0.1,0.3-0.2,0.3-0.5c0-1.3,0-2.7,0-4c0-0.3,0-0.4,0.3-0.4c0.5,0,0.9-0.1,1.3-0.2
	c0.4-0.1,0.5,0.1,0.6,0.4c0.5,1.2,1,2.4,1.5,3.7c0.1,0.2,0.3,0.4,0.5,0.3c0.4,0,0.8,0,1.2,0c0.2,0,0.4-0.1,0.5-0.3
	c0.5-1.3,1-2.5,1.5-3.8C25.4,0,25.5-0.1,25.8,0c0.5,0.1,0.9,0.2,1.4,0.2c0.3,0,0.4,0.2,0.4,0.5C27.5,1.4,27.5,2,27.5,2.7z
	 M19.9,36.8C19.9,36.8,19.9,36.7,19.9,36.8c0-2.5,0-4.9,0-7.3c0-0.2-0.1-0.3-0.3-0.3c-0.9-0.4-1.7-0.9-2.4-1.5
	c-3-3-3.1-7.8-0.1-10.8c0.4-0.4,0.9-0.8,1.4-1.2c0.2-0.1,0.4-0.2,0.5-0.2c0.3-0.1,0.6,0,0.7,0.3c0,0,0,0,0,0C20,16,20,16.2,20,16.4
	c0,1.6-0.1,3.2,0.1,4.8c0,0.6,0.4,1,1,1c1,0,2,0,3,0c0.6,0,1-0.4,1-1c0.1-0.4,0.1-0.8,0.1-1.2c0-1.3,0-2.5,0-3.8
	c0-0.8,0.5-1,1.1-0.7c0.4,0.2,0.8,0.5,1.2,0.9c3.2,2.8,3.5,7.6,0.8,10.8c-0.8,0.9-1.8,1.6-2.9,2.1c-0.2,0.1-0.2,0.2-0.2,0.4
	c0,2.2,0,4.3,0,6.5c0,0.7,0,0.7,0.7,0.5c7.9-1.7,12.8-9.5,11.1-17.3S27.4,6.6,19.6,8.3C11.8,10,6.9,17.6,8.4,25.4
	c0.8,4.5,3.8,8.3,7.9,10.2C17.4,36.2,18.7,36.6,19.9,36.8z"/>
</svg>
